<svg width="139" height="38" viewBox="0 0 139 38" fill="none" xmlns="http://www.w3.org/2000/svg">
<path d="M24 19C24 20.664 23.68 22.232 23.04 23.704C22.432 25.144 21.584 26.408 20.496 27.496C19.408 28.584 18.128 29.448 16.656 30.088C15.216 30.696 13.664 31 12 31C9.888 31 7.936 30.504 6.144 29.512V37.24H0V19C0 17.336 0.304 15.784 0.912 14.344C1.552 12.872 2.416 11.592 3.504 10.504C4.592 9.416 5.856 8.568 7.296 7.96C8.768 7.32 10.336 7 12 7C13.664 7 15.216 7.32 16.656 7.96C18.128 8.568 19.408 9.416 20.496 10.504C21.584 11.592 22.432 12.872 23.04 14.344C23.68 15.784 24 17.336 24 19ZM17.856 19C17.856 18.2 17.696 17.448 17.376 16.744C17.088 16.008 16.672 15.384 16.128 14.872C15.616 14.328 14.992 13.912 14.256 13.624C13.552 13.304 12.8 13.144 12 13.144C11.2 13.144 10.432 13.304 9.696 13.624C8.992 13.912 8.368 14.328 7.824 14.872C7.312 15.384 6.896 16.008 6.576 16.744C6.288 17.448 6.144 18.2 6.144 19C6.144 19.8 6.288 20.568 6.576 21.304C6.896 22.008 7.312 22.632 7.824 23.176C8.368 23.688 8.992 24.104 9.696 24.424C10.432 24.712 11.2 24.856 12 24.856C12.8 24.856 13.552 24.712 14.256 24.424C14.992 24.104 15.616 23.688 16.128 23.176C16.672 22.632 17.088 22.008 17.376 21.304C17.696 20.568 17.856 19.8 17.856 19ZM45.7346 28.504C44.7106 29.304 43.5746 29.928 42.3266 30.376C41.0786 30.792 39.7666 31 38.3906 31C36.7266 31 35.1586 30.696 33.6866 30.088C32.2466 29.448 30.9826 28.584 29.8946 27.496C28.8066 26.408 27.9426 25.144 27.3026 23.704C26.6946 22.232 26.3906 20.664 26.3906 19C26.3906 17.336 26.6946 15.784 27.3026 14.344C27.9426 12.872 28.8066 11.592 29.8946 10.504C30.9826 9.416 32.2466 8.568 33.6866 7.96C35.1586 7.32 36.7266 7 38.3906 7C40.0546 7 41.6066 7.32 43.0466 7.96C44.5186 8.568 45.7986 9.416 46.8866 10.504C47.9746 11.592 48.8226 12.872 49.4306 14.344C50.0706 15.784 50.3906 17.336 50.3906 19C50.3906 19.512 50.3586 20.008 50.2946 20.488C50.2306 20.968 50.1506 21.432 50.0546 21.88H33.3026C33.8146 22.776 34.5186 23.496 35.4146 24.04C36.3106 24.584 37.3026 24.856 38.3906 24.856C39.0306 24.856 39.6386 24.76 40.2146 24.568C40.7906 24.376 41.3186 24.104 41.7986 23.752L45.7346 28.504ZM38.3906 13.144C37.3666 13.144 36.4386 13.384 35.6066 13.864C34.7746 14.344 34.0866 14.968 33.5426 15.736H43.2386C42.6946 14.968 42.0066 14.344 41.1746 13.864C40.3426 13.384 39.4146 13.144 38.3906 13.144ZM64.7812 31C63.1173 31 61.5493 30.696 60.0773 30.088C58.6373 29.448 57.3733 28.584 56.2853 27.496C55.1973 26.408 54.3333 25.144 53.6933 23.704C53.0853 22.232 52.7812 20.664 52.7812 19V0.759997H58.9253V7H73.7093V13.144H58.9253V19C58.9253 19.8 59.0693 20.568 59.3573 21.304C59.6773 22.008 60.0933 22.632 60.6053 23.176C61.1493 23.688 61.7733 24.104 62.4773 24.424C63.2133 24.712 63.9813 24.856 64.7812 24.856C65.5813 24.856 66.3333 24.712 67.0373 24.424C67.7733 24.104 68.3973 23.688 68.9093 23.176C69.4533 22.632 69.8693 22.008 70.1573 21.304C70.4773 20.568 70.6373 19.8 70.6373 19H76.7812C76.7812 20.664 76.4613 22.232 75.8213 23.704C75.2133 25.144 74.3653 26.408 73.2773 27.496C72.1893 28.584 70.9093 29.448 69.4373 30.088C67.9973 30.696 66.4453 31 64.7812 31ZM91.1719 0.759997C92.8359 0.759997 94.3879 1.08 95.8279 1.72C97.2999 2.328 98.5799 3.176 99.6679 4.264C100.756 5.352 101.604 6.632 102.212 8.104C102.852 9.544 103.172 11.096 103.172 12.76H97.0279C97.0279 11.96 96.8679 11.208 96.5479 10.504C96.2599 9.768 95.8439 9.144 95.2999 8.632C94.7879 8.088 94.1639 7.672 93.4279 7.384C92.7239 7.064 91.9719 6.904 91.1719 6.904C90.3719 6.904 89.6039 7.064 88.8679 7.384C88.1639 7.672 87.5399 8.088 86.9959 8.632C86.4839 9.144 86.0679 9.768 85.7479 10.504C85.4599 11.208 85.3159 11.96 85.3159 12.76V19.576H99.7639V25.72H85.3159V31H79.1719V12.76C79.1719 11.096 79.4759 9.544 80.0839 8.104C80.7239 6.632 81.5879 5.352 82.6759 4.264C83.7639 3.176 85.0279 2.328 86.4679 1.72C87.9399 1.08 89.5079 0.759997 91.1719 0.759997ZM105.562 7H111.707V19C111.707 19.8 111.851 20.568 112.139 21.304C112.459 22.008 112.875 22.632 113.387 23.176C113.931 23.688 114.555 24.104 115.259 24.424C115.995 24.712 116.763 24.856 117.562 24.856C118.363 24.856 119.115 24.712 119.819 24.424C120.555 24.104 121.179 23.688 121.691 23.176C122.235 22.632 122.651 22.008 122.939 21.304C123.259 20.568 123.419 19.8 123.419 19V7H129.562V19C129.562 20.664 129.243 22.232 128.603 23.704C127.995 25.144 127.147 26.408 126.059 27.496C124.971 28.584 123.691 29.448 122.219 30.088C120.779 30.696 119.227 31 117.562 31C115.899 31 114.331 30.696 112.859 30.088C111.419 29.448 110.155 28.584 109.067 27.496C107.979 26.408 107.115 25.144 106.475 23.704C105.867 22.232 105.562 20.664 105.562 19V7ZM138.097 31H131.953V0.759997H138.097V31Z" fill="#FFBF00"/>
</svg>
